<svg width="49" height="41" viewBox="0 0 49 41" fill="none" xmlns="http://www.w3.org/2000/svg">
<path fill-rule="evenodd" clip-rule="evenodd" d="M37.8281 31.8954L48.1928 21.9141C48.6878 21.4481 48.941 20.8598 48.9414 20.2684C48.9417 19.8637 48.8235 19.4576 48.5835 19.0883C48.4768 18.9237 48.3464 18.7673 48.1928 18.6227L37.8281 8.64136C36.7394 7.59299 34.8272 7.4715 33.557 8.37C32.2868 9.2685 32.1396 10.8467 33.2282 11.8951L39.3269 17.7682L15.868 17.7682C14.1951 17.7682 12.839 18.8875 12.839 20.2682C12.839 21.6489 14.1951 22.7682 15.868 22.7682L39.3273 22.7682L33.2282 28.6417C32.1396 29.69 32.2868 31.2683 33.557 32.1668C34.8272 33.0653 36.7394 32.9438 37.8281 31.8954ZM18.6509 5.26819C20.3238 5.26819 21.6799 6.38748 21.6799 7.76819L21.6799 11.5182C21.6799 12.8989 23.0361 14.0182 24.709 14.0182C26.3819 14.0182 27.738 12.8989 27.738 11.5182L27.738 7.76819C27.738 3.62605 23.6696 0.268188 18.6509 0.268187L9.56371 0.268187C4.54501 0.268187 0.476555 3.62605 0.476554 7.76819L0.476553 32.7682C0.476553 36.9103 4.54501 40.2682 9.56371 40.2682L18.6509 40.2682C23.6696 40.2682 27.738 36.9103 27.738 32.7682L27.738 29.0182C27.738 27.6375 26.3819 26.5182 24.709 26.5182C23.0361 26.5182 21.6799 27.6375 21.6799 29.0182L21.6799 32.7682C21.6799 34.1489 20.3238 35.2682 18.6509 35.2682L9.56371 35.2682C7.89081 35.2682 6.53466 34.1489 6.53466 32.7682L6.53466 7.76819C6.53466 6.38747 7.89082 5.26819 9.56371 5.26819L18.6509 5.26819Z" fill="white"/>
</svg>
