<svg width="50" height="52" viewBox="0 0 50 52" fill="none" xmlns="http://www.w3.org/2000/svg">
<path d="M44.4444 12.8798H38.8889C38.8889 6.09151 32.7778 0.757812 25 0.757812C17.2222 0.757812 11.1111 6.09151 11.1111 12.8798H5.55556C2.5 12.8798 0 15.0618 0 17.7287V46.8215C0 49.4884 2.5 51.6704 5.55556 51.6704H44.4444C47.5 51.6704 50 49.4884 50 46.8215V17.7287C50 15.0618 47.5 12.8798 44.4444 12.8798ZM25 5.60663C29.7222 5.60663 33.3333 8.75836 33.3333 12.8798H16.6667C16.6667 8.75836 20.2778 5.60663 25 5.60663ZM5.55556 46.8215V17.7287H44.4444V46.8215H5.55556ZM25 27.4263C20.2778 27.4263 16.6667 24.2746 16.6667 20.1531H11.1111C11.1111 26.9414 17.2222 32.2751 25 32.2751C32.7778 32.2751 38.8889 26.9414 38.8889 20.1531H33.3333C33.3333 24.2746 29.7222 27.4263 25 27.4263Z" fill="white"/>
<path d="M44.4444 12.8798H38.8889C38.8889 6.09151 32.7778 0.757812 25 0.757812C17.2222 0.757812 11.1111 6.09151 11.1111 12.8798H5.55556C2.5 12.8798 0 15.0618 0 17.7287V46.8215C0 49.4884 2.5 51.6704 5.55556 51.6704H44.4444C47.5 51.6704 50 49.4884 50 46.8215V17.7287C50 15.0618 47.5 12.8798 44.4444 12.8798ZM25 5.60663C29.7222 5.60663 33.3333 8.75836 33.3333 12.8798H16.6667C16.6667 8.75836 20.2778 5.60663 25 5.60663ZM5.55556 46.8215V17.7287H44.4444V46.8215H5.55556ZM25 27.4263C20.2778 27.4263 16.6667 24.2746 16.6667 20.1531H11.1111C11.1111 26.9414 17.2222 32.2751 25 32.2751C32.7778 32.2751 38.8889 26.9414 38.8889 20.1531H33.3333C33.3333 24.2746 29.7222 27.4263 25 27.4263Z" stroke="black"/>
</svg>
